<?xml version="1.0" standalone="no"?>
<!DOCTYPE svg PUBLIC "-//W3C//DTD SVG 20010904//EN"
 "http://www.w3.org/TR/2001/REC-SVG-20010904/DTD/svg10.dtd">
<svg version="1.0" xmlns="http://www.w3.org/2000/svg"
 width="420.000000pt" height="134.000000pt" viewBox="0 0 420.000000 134.000000"
 preserveAspectRatio="xMidYMid meet">
<metadata>
Created by potrace 1.16, written by Peter Selinger 2001-2019
</metadata>
<g transform="translate(0.000000,134.000000) scale(0.100000,-0.100000)"
fill="#000000" stroke="none">
<path d="M1678 1134 c-11 -11 -10 -144 1 -144 6 0 11 17 13 37 4 52 28 56 28
4 0 -51 26 -59 28 -8 2 49 -7 67 -33 67 -18 0 -24 6 -27 26 -2 14 -6 22 -10
18z"/>
<path d="M2367 1133 c-4 -3 -7 -15 -7 -25 0 -11 -7 -18 -20 -18 -10 0 -24 -9
-30 -19 -24 -47 0 -92 44 -84 25 5 26 8 26 79 0 74 -1 80 -13 67z m-9 -95 c-4
-39 -25 -48 -34 -14 -7 29 1 46 22 46 11 0 14 -9 12 -32z"/>
<path d="M2607 1133 c-10 -19 -1 -137 11 -141 8 -2 12 9 12 37 0 30 4 41 15
41 11 0 15 -11 15 -40 0 -22 5 -40 11 -40 6 0 9 19 7 48 -3 40 -6 47 -25 50
-15 2 -23 10 -23 22 0 20 -16 35 -23 23z"/>
<path d="M473 1041 c-61 -48 -124 -98 -140 -109 l-28 -21 56 -1 c50 0 60 4
100 37 24 21 47 42 51 47 16 23 18 -4 4 -39 -9 -21 -16 -39 -16 -41 0 -2 20
-4 44 -4 l43 0 32 98 c17 53 31 103 31 110 0 7 -13 12 -33 12 -26 0 -55 -18
-144 -89z"/>
<path d="M695 1118 c-2 -7 -17 -57 -33 -110 l-30 -98 43 0 c37 0 44 3 49 25 6
22 12 25 47 25 39 0 41 -2 37 -25 -5 -24 -3 -25 43 -25 48 0 49 1 49 29 0 20
-8 35 -22 46 l-23 15 21 6 c27 7 57 61 53 94 -4 25 -5 25 -117 28 -86 2 -113
0 -117 -10z m133 -57 c7 -21 -17 -38 -48 -33 -33 5 -34 6 -20 32 11 21 61 22
68 1z"/>
<path d="M1100 1120 c-70 -19 -128 -69 -154 -132 -28 -65 -23 -78 29 -78 39 0
45 3 45 20 0 34 28 79 60 95 16 8 55 15 87 15 59 0 59 0 73 38 8 20 17 41 18
45 5 9 -121 7 -158 -3z"/>
<path d="M1504 1098 c4 -18 9 -50 13 -70 8 -51 31 -49 39 2 4 22 10 40 14 40
4 0 10 -18 14 -40 9 -58 31 -51 44 13 6 28 14 60 17 70 5 11 2 17 -8 17 -10 0
-17 -15 -22 -47 l-8 -48 -14 48 c-8 26 -18 47 -23 47 -6 0 -13 -18 -16 -40 -7
-45 -24 -64 -24 -28 0 35 -11 68 -22 68 -6 0 -8 -13 -4 -32z"/>
<path d="M3810 1120 c0 -5 6 -10 14 -10 8 0 18 5 21 10 3 6 -3 10 -14 10 -12
0 -21 -4 -21 -10z"/>
<path d="M3680 1105 c0 -8 -5 -15 -11 -15 -8 0 -8 -4 -1 -13 6 -6 12 -28 14
-47 2 -27 8 -36 26 -38 12 -2 22 1 22 7 0 6 -6 11 -14 11 -19 0 -16 51 4 67
10 9 11 12 3 13 -7 0 -13 7 -13 15 0 8 -7 15 -15 15 -8 0 -15 -7 -15 -15z"/>
<path d="M3880 1106 c0 -8 -6 -17 -12 -20 -10 -5 -10 -7 0 -12 6 -3 12 -23 12
-45 0 -35 3 -39 25 -39 14 0 25 5 25 10 0 6 -7 10 -15 10 -21 0 -19 50 3 66
16 13 16 13 0 14 -10 0 -18 7 -18 15 0 8 -4 15 -10 15 -5 0 -10 -6 -10 -14z"/>
<path d="M1782 1078 c-7 -7 -12 -24 -12 -38 0 -14 5 -31 12 -38 15 -15 68 -16
68 -1 0 6 -9 9 -20 6 -10 -3 -24 1 -31 9 -9 11 -6 14 20 14 23 0 31 5 31 18 0
22 -19 42 -40 42 -9 0 -21 -5 -28 -12z m43 -18 c3 -5 -3 -10 -15 -10 -12 0
-18 5 -15 10 3 6 10 10 15 10 5 0 12 -4 15 -10z"/>
<path d="M1870 1038 c0 -35 4 -48 12 -46 7 3 13 11 14 19 0 8 2 24 2 37 1 12
9 22 17 22 8 0 15 4 15 8 0 5 -13 9 -30 9 -29 0 -30 -2 -30 -49z"/>
<path d="M1952 1078 c-13 -13 -16 -47 -6 -72 7 -18 64 -23 64 -6 0 6 -11 10
-25 10 -14 0 -25 5 -25 10 0 6 14 10 30 10 32 0 36 9 20 41 -12 21 -40 25 -58
7z m38 -18 c0 -5 -7 -10 -15 -10 -8 0 -15 5 -15 10 0 6 7 10 15 10 8 0 15 -4
15 -10z"/>
<path d="M2100 1081 c0 -6 11 -11 25 -11 31 0 33 -17 3 -22 -15 -2 -24 -11
-26 -27 -4 -28 10 -40 44 -33 23 4 25 8 22 51 -3 44 -4 46 -35 49 -19 2 -33
-1 -33 -7z m42 -73 c-15 -15 -26 -4 -18 18 5 13 9 15 18 6 9 -9 9 -15 0 -24z"/>
<path d="M2190 1039 c0 -37 4 -49 15 -49 11 0 15 11 15 40 0 29 4 40 15 40 11
0 15 -11 15 -40 0 -36 8 -49 22 -35 2 3 2 24 -1 47 -6 42 -7 43 -43 44 l-38 1
0 -48z"/>
<path d="M2465 1059 c19 -85 36 -97 50 -37 l8 33 6 -33 c3 -18 11 -34 16 -35
9 -2 47 94 40 102 -8 8 -25 -12 -25 -29 0 -10 -4 -22 -10 -25 -6 -4 -10 7 -10
24 0 45 -27 40 -37 -6 l-7 -38 -6 34 c-3 19 -11 36 -19 39 -10 3 -11 -3 -6
-29z"/>
<path d="M2721 1076 c-7 -8 -11 -30 -9 -48 3 -28 7 -33 32 -36 16 -2 34 2 40
8 8 8 4 11 -18 8 -17 -2 -31 2 -33 10 -3 8 6 12 26 12 33 0 37 9 21 41 -13 22
-43 25 -59 5z m39 -16 c0 -5 -7 -10 -15 -10 -8 0 -15 5 -15 10 0 6 7 10 15 10
8 0 15 -4 15 -10z"/>
<path d="M2810 1039 c0 -27 5 -49 10 -49 6 0 10 18 10 40 0 29 4 40 15 40 14
0 20 -22 16 -62 -1 -10 4 -18 13 -18 12 0 16 11 16 45 0 25 -3 45 -7 46 -5 1
-23 2 -40 4 l-33 3 0 -49z"/>
<path d="M2977 1043 c9 -27 20 -50 24 -53 12 -8 -7 -34 -19 -26 -6 3 -13 2
-16 -3 -9 -13 25 -23 39 -11 16 13 50 128 41 137 -10 10 -26 -17 -26 -44 0
-39 -17 -34 -24 7 -4 25 -12 40 -21 40 -12 0 -11 -7 2 -47z"/>
<path d="M3077 1069 c-26 -36 4 -95 41 -82 23 9 32 23 32 54 0 48 -47 67 -73
28z m51 -22 c4 -21 -16 -49 -29 -41 -5 3 -9 19 -9 35 0 24 4 30 17 27 10 -2
19 -11 21 -21z"/>
<path d="M3172 1043 c3 -48 3 -48 41 -51 l37 -3 0 50 c0 28 -4 51 -10 51 -5 0
-10 -18 -10 -39 0 -24 -5 -41 -14 -44 -18 -7 -26 13 -21 52 3 23 0 31 -11 31
-12 0 -14 -10 -12 -47z"/>
<path d="M3333 1074 c3 -11 8 -34 12 -51 4 -18 12 -33 20 -33 7 0 16 15 21 33
l8 32 3 -32 c6 -49 30 -41 46 15 8 26 13 49 11 51 -8 9 -24 -13 -24 -35 0 -13
-4 -24 -10 -24 -5 0 -10 14 -10 30 0 44 -26 38 -36 -7 l-8 -38 -5 34 c-3 19
-12 36 -20 39 -9 3 -11 -2 -8 -14z"/>
<path d="M3470 1080 c0 -5 11 -10 25 -10 14 0 25 -4 25 -10 0 -5 -8 -10 -19
-10 -24 0 -45 -25 -37 -45 3 -9 18 -15 41 -15 33 0 35 2 35 34 0 52 -9 66 -41
66 -16 0 -29 -4 -29 -10z m50 -54 c0 -16 -18 -31 -27 -22 -8 8 5 36 17 36 5 0
10 -6 10 -14z"/>
<path d="M3570 1038 c0 -56 17 -65 22 -11 4 52 28 56 28 4 0 -51 26 -59 28 -8
2 56 -6 67 -44 64 -34 -2 -34 -3 -34 -49z"/>
<path d="M3800 1080 c0 -5 5 -10 10 -10 6 0 10 -18 10 -40 0 -22 5 -40 10 -40
6 0 10 23 10 50 0 43 -3 50 -20 50 -11 0 -20 -4 -20 -10z"/>
<path d="M3945 1010 c-3 -6 1 -13 10 -16 19 -8 30 0 20 15 -8 14 -22 14 -30 1z"/>
<path d="M2732 860 c-1 -41 0 -43 10 -20 l11 25 7 -25 8 -25 1 28 c1 17 -4 27
-13 27 -8 0 -17 8 -19 18 -3 9 -5 -3 -5 -28z"/>
<path d="M315 882 c-44 -3 -60 -10 -119 -57 -38 -30 -73 -55 -77 -55 -5 0 -9
-4 -9 -8 0 -5 24 -8 54 -7 49 2 61 7 123 55 85 67 88 69 82 72 -2 2 -27 2 -54
0z"/>
<path d="M750 882 l-125 -3 -11 -34 c-14 -43 -10 -44 108 -40 92 3 127 16 148
56 7 11 10 21 8 22 -2 1 -59 1 -128 -1z"/>
<path d="M1510 883 c0 -6 5 -15 10 -18 6 -3 11 -16 11 -28 1 -20 2 -21 6 -2 3
11 10 26 16 33 5 7 7 15 4 19 -4 3 -9 -2 -13 -11 -6 -15 -7 -15 -20 1 -7 10
-14 13 -14 6z"/>
<path d="M2150 869 c0 -14 5 -19 14 -16 10 4 16 -2 19 -16 4 -18 5 -17 6 6 1
18 -4 27 -15 27 -8 0 -12 5 -9 10 3 6 1 10 -4 10 -6 0 -11 -9 -11 -21z"/>
<path d="M2371 853 c1 -22 3 -30 6 -18 3 11 9 22 13 25 4 3 2 11 -6 18 -12 11
-14 7 -13 -25z"/>
<path d="M2511 855 c0 -37 1 -38 11 -15 l11 25 7 -25 8 -25 1 28 c1 17 -4 27
-13 27 -8 0 -17 6 -19 13 -3 6 -5 -6 -6 -28z"/>
<path d="M2827 883 c-10 -9 -9 -51 1 -57 5 -3 6 8 4 24 -3 21 1 29 15 33 13 3
14 5 2 6 -9 0 -19 -2 -22 -6z"/>
<path d="M3120 857 c0 -20 4 -37 8 -37 9 0 7 58 -2 67 -3 4 -6 -10 -6 -30z"/>
<path d="M3266 870 c-20 -21 -15 -50 9 -50 11 0 15 10 15 35 0 40 1 40 -24 15z
m14 -25 c0 -8 -4 -15 -10 -15 -5 0 -10 7 -10 15 0 8 5 15 10 15 6 0 10 -7 10
-15z"/>
<path d="M3336 881 c-3 -5 1 -14 9 -21 20 -16 19 -28 -2 -33 -14 -4 -12 -5 5
-6 15 -1 22 5 22 18 0 11 -6 22 -12 24 -10 4 -9 8 2 16 13 9 13 11 -2 11 -9 0
-19 -4 -22 -9z"/>
<path d="M3443 855 c0 -22 2 -30 4 -17 2 12 2 30 0 40 -3 9 -5 -1 -4 -23z"/>
<path d="M405 849 c-22 -17 -41 -34 -43 -38 -1 -4 42 -7 97 -7 94 1 100 2 105
22 3 12 9 29 12 38 5 14 -4 16 -62 15 -60 0 -74 -4 -109 -30z"/>
<path d="M930 869 c0 -27 35 -81 61 -94 16 -9 56 -15 96 -15 l68 0 16 39 16
38 -59 6 c-32 3 -70 12 -83 21 -28 18 -115 22 -115 5z"/>
<path d="M2117 873 c-2 -5 -1 -19 4 -33 7 -23 7 -23 8 8 1 31 -3 40 -12 25z"/>
<path d="M2700 851 c0 -17 2 -31 4 -31 8 0 13 51 5 56 -5 3 -9 -9 -9 -25z"/>
<path d="M3523 862 c1 -14 5 -18 11 -12 7 7 6 14 -1 21 -9 9 -12 7 -10 -9z"/>
<path d="M1564 856 c-3 -8 -4 -21 -1 -28 3 -7 6 -3 6 10 1 12 6 22 12 22 6 0
9 -9 6 -20 -3 -11 -1 -20 5 -20 14 0 5 43 -9 48 -7 2 -16 -3 -19 -12z"/>
<path d="M1610 860 c0 -5 5 -10 11 -10 5 0 7 5 4 10 -3 6 -8 10 -11 10 -2 0
-4 -4 -4 -10z"/>
<path d="M1707 863 c-14 -14 -7 -43 11 -42 10 0 12 3 5 6 -7 2 -13 11 -13 18
0 7 6 16 13 18 6 3 7 6 1 6 -6 1 -14 -2 -17 -6z"/>
<path d="M1756 863 c7 -4 14 -17 17 -28 5 -16 5 -15 4 4 -1 14 -9 26 -17 28
-10 3 -11 2 -4 -4z"/>
<path d="M1801 843 c2 -24 2 -25 6 -5 3 13 9 19 15 16 7 -4 8 -2 4 4 -13 21
-26 13 -25 -15z"/>
<path d="M1883 843 c-1 -24 -1 -25 7 -8 11 26 12 35 2 35 -4 0 -8 -12 -9 -27z"/>
<path d="M1912 845 c0 -16 2 -22 5 -12 2 9 2 23 0 30 -3 6 -5 -1 -5 -18z"/>
<path d="M1950 863 c5 -2 10 -13 10 -24 0 -10 4 -19 10 -19 13 0 -4 43 -19 46
-6 1 -7 0 -1 -3z"/>
<path d="M2034 856 c-7 -18 3 -36 19 -35 9 0 9 2 0 6 -15 5 -18 33 -4 33 5 0
12 -5 14 -10 3 -6 4 -5 3 2 -4 18 -25 22 -32 4z"/>
<path d="M2217 863 c-4 -3 -7 -16 -6 -27 1 -18 2 -18 9 4 4 14 8 19 9 12 1 -7
6 -10 11 -7 6 4 8 11 5 16 -7 11 -19 12 -28 2z"/>
<path d="M2264 856 c-3 -8 -4 -21 -1 -28 3 -7 6 -3 6 10 1 29 38 31 44 2 4
-17 4 -16 3 2 -1 27 -43 38 -52 14z"/>
<path d="M2424 856 c-3 -8 -4 -21 -1 -28 3 -7 6 -3 6 10 1 12 5 22 10 22 5 0
12 -10 14 -22 5 -21 5 -21 4 1 -2 28 -24 40 -33 17z"/>
<path d="M2475 860 c4 -6 11 -8 16 -5 14 9 11 15 -7 15 -8 0 -12 -5 -9 -10z"/>
<path d="M2640 849 c-7 -11 -9 -24 -5 -27 3 -3 8 4 12 16 7 28 20 28 26 0 4
-20 4 -19 6 5 1 33 -23 37 -39 6z"/>
<path d="M2882 845 c0 -16 2 -22 5 -12 2 9 2 23 0 30 -3 6 -5 -1 -5 -18z"/>
<path d="M2946 857 c3 -10 9 -15 12 -12 3 3 0 11 -7 18 -10 9 -11 8 -5 -6z"/>
<path d="M2980 845 c0 -14 2 -25 4 -25 2 0 6 11 8 25 3 14 1 25 -3 25 -5 0 -9
-11 -9 -25z"/>
<path d="M3026 855 c4 -8 10 -12 15 -9 11 6 2 24 -11 24 -5 0 -7 -7 -4 -15z"/>
<path d="M3064 856 c-3 -8 -4 -21 -1 -28 3 -7 6 -3 6 10 1 12 5 22 10 22 5 0
12 -10 14 -22 5 -21 5 -21 4 1 -2 28 -24 40 -33 17z"/>
<path d="M3154 855 c-4 -9 -4 -19 0 -22 3 -4 6 1 6 10 0 10 5 17 11 17 5 0 7
-4 4 -10 -3 -5 -1 -10 5 -10 15 0 8 22 -8 28 -7 2 -15 -4 -18 -13z"/>
<path d="M3204 856 c-7 -18 3 -36 19 -35 9 0 9 2 0 6 -16 6 -17 33 -2 33 5 0
7 -4 4 -10 -3 -5 -1 -10 5 -10 15 0 8 22 -8 28 -7 2 -15 -3 -18 -12z"/>
<path d="M3395 860 c-4 -6 1 -7 11 -3 13 5 15 2 10 -18 -6 -20 -5 -21 4 -6 11
17 6 37 -10 37 -5 0 -12 -4 -15 -10z"/>
<path d="M3562 840 c0 -19 2 -27 5 -17 2 9 2 25 0 35 -3 9 -5 1 -5 -18z"/>
<path d="M3592 857 c-6 -7 -7 -19 -3 -26 6 -9 10 -5 13 13 6 30 5 31 -10 13z"/>
<path d="M3644 856 c-3 -8 -4 -21 -1 -28 3 -7 6 -3 6 10 1 12 5 22 10 22 5 0
12 -10 14 -22 5 -21 5 -21 4 1 -2 28 -24 40 -33 17z"/>
<path d="M3695 861 c-3 -5 -1 -12 4 -16 6 -3 7 -13 4 -23 -5 -14 -3 -15 7 -5
10 10 11 15 1 27 -9 11 -9 15 1 19 9 4 9 6 1 6 -6 1 -14 -3 -18 -8z"/>
<path d="M1642 840 c0 -14 2 -19 5 -12 2 6 2 18 0 25 -3 6 -5 1 -5 -13z"/>
<path d="M1990 853 c0 -15 18 -35 23 -27 3 5 -1 15 -9 22 -8 7 -14 9 -14 5z"/>
<path d="M2852 840 c0 -14 2 -19 5 -12 2 6 2 18 0 25 -3 6 -5 1 -5 -13z"/>
<path d="M3472 840 c0 -14 2 -19 5 -12 2 6 2 18 0 25 -3 6 -5 1 -5 -13z"/>
<path d="M3497 840 c-3 -11 -1 -20 4 -20 5 0 9 9 9 20 0 11 -2 20 -4 20 -2 0
-6 -9 -9 -20z"/>
<path d="M3616 844 c-4 -9 -4 -19 -1 -22 2 -3 7 3 11 12 4 9 4 19 1 22 -2 3
-7 -3 -11 -12z"/>
<path d="M3011 834 c0 -11 3 -14 6 -6 3 7 2 16 -1 19 -3 4 -6 -2 -5 -13z"/>
<path d="M2905 830 c-3 -5 -1 -10 4 -10 6 0 11 5 11 10 0 6 -2 10 -4 10 -3 0
-8 -4 -11 -10z"/>
<path d="M336 775 c-3 -9 0 -15 8 -15 8 0 16 7 20 15 3 9 0 15 -8 15 -8 0 -16
-7 -20 -15z"/>
<path d="M385 781 c-13 -12 -3 -29 14 -24 27 7 35 32 10 30 -11 -1 -22 -3 -24
-6z"/>
<path d="M436 781 c-4 -7 -5 -15 -2 -18 9 -9 19 4 14 18 -4 11 -6 11 -12 0z"/>
<path d="M460 775 c0 -17 2 -18 24 -9 23 9 20 24 -4 24 -11 0 -20 -7 -20 -15z"/>
<path d="M517 783 c-4 -3 -7 -12 -7 -20 0 -11 4 -11 20 -1 11 7 20 16 20 20 0
10 -24 10 -33 1z"/>
<path d="M566 774 c-4 -9 -4 -19 -1 -22 2 -3 7 3 11 12 4 9 4 19 1 22 -2 3 -7
-3 -11 -12z"/>
<path d="M590 767 c0 -16 3 -19 9 -8 5 7 14 10 20 7 6 -4 11 -2 11 5 0 8 7 6
19 -5 20 -19 41 -14 41 8 0 8 -17 13 -50 14 -45 1 -50 -1 -50 -21z"/>
<path d="M727 783 c-11 -11 -8 -20 9 -27 12 -4 15 -2 10 9 -7 19 8 19 24 0 9
-10 16 -12 25 -5 8 6 15 6 23 -2 7 -7 12 -8 12 -2 0 20 -25 34 -60 34 -20 0
-40 -3 -43 -7z"/>
<path d="M1174 761 c3 -5 15 -7 26 -4 28 7 25 13 -6 13 -14 0 -23 -4 -20 -9z"/>
<path d="M217 673 c-8 -7 -10 -63 -3 -63 14 0 57 51 51 59 -7 12 -38 15 -48 4z
m33 -13 c0 -5 -4 -10 -10 -10 -5 0 -10 5 -10 10 0 6 5 10 10 10 6 0 10 -4 10
-10z"/>
<path d="M287 673 c-11 -10 -8 -51 3 -58 17 -10 50 5 50 24 0 30 -35 53 -53
34z m33 -28 c0 -8 -7 -15 -15 -15 -16 0 -20 12 -8 23 11 12 23 8 23 -8z"/>
<path d="M350 670 c0 -26 12 -60 21 -60 14 0 10 34 -6 56 -11 14 -14 15 -15 4z"/>
<path d="M380 666 c0 -8 5 -18 10 -21 6 -3 10 3 10 14 0 12 -4 21 -10 21 -5 0
-10 -6 -10 -14z"/>
<path d="M412 655 c-14 -31 -15 -45 -3 -45 10 0 26 58 19 66 -3 2 -10 -7 -16
-21z"/>
<path d="M444 666 c-11 -28 1 -51 26 -53 15 -1 18 0 8 3 -21 6 -23 20 -5 27
10 4 10 6 0 6 -7 1 -13 6 -13 12 0 5 4 8 9 4 5 -3 12 -1 16 5 3 5 -3 10 -15
10 -11 0 -23 -6 -26 -14z"/>
<path d="M507 674 c-4 -4 -7 -21 -7 -38 1 -27 2 -29 13 -14 12 15 14 15 24 0
10 -14 12 -11 10 18 -2 33 -23 51 -40 34z m23 -14 c0 -5 -5 -10 -11 -10 -5 0
-7 5 -4 10 3 6 8 10 11 10 2 0 4 -4 4 -10z"/>
<path d="M599 666 c7 -8 11 -21 9 -30 -2 -8 2 -15 7 -15 6 -1 10 7 10 17 0 9
4 23 8 30 6 8 0 12 -19 12 -22 0 -24 -3 -15 -14z"/>
<path d="M651 661 c-15 -27 9 -56 37 -47 39 13 24 66 -18 66 -5 0 -14 -8 -19
-19z m39 -15 c0 -8 -4 -17 -9 -20 -10 -7 -23 19 -14 28 11 11 23 6 23 -8z"/>
<path d="M750 645 c0 -34 2 -36 28 -33 23 3 27 8 27 33 0 25 -4 30 -27 33 -26
3 -28 1 -28 -33z m43 11 c6 -15 -1 -26 -15 -26 -4 0 -8 9 -8 20 0 23 15 27 23
6z"/>
<path d="M824 666 c-11 -28 1 -51 26 -53 15 -1 18 0 8 3 -21 6 -23 20 -5 27
10 4 10 6 0 6 -19 1 -16 19 5 24 12 4 11 5 -6 6 -12 0 -25 -5 -28 -13z"/>
<path d="M880 645 c0 -28 4 -35 20 -35 11 0 20 5 20 10 0 6 -4 10 -10 10 -5 0
-10 11 -10 25 0 14 -4 25 -10 25 -5 0 -10 -16 -10 -35z"/>
<path d="M930 645 c0 -19 5 -35 10 -35 6 0 10 16 10 35 0 19 -4 35 -10 35 -5
0 -10 -16 -10 -35z"/>
<path d="M960 676 c0 -15 24 -66 31 -66 9 0 29 42 29 61 0 5 -4 9 -10 9 -5 0
-10 -9 -10 -20 0 -11 -4 -20 -10 -20 -5 0 -10 9 -10 20 0 11 -4 20 -10 20 -5
0 -10 -2 -10 -4z"/>
<path d="M1030 645 c0 -32 3 -35 28 -34 16 1 20 3 10 6 -10 2 -18 8 -18 13 0
5 8 11 18 13 16 4 16 5 0 6 -10 0 -18 5 -18 10 0 5 8 12 18 14 10 3 6 5 -10 6
-25 1 -28 -2 -28 -34z"/>
<path d="M1090 645 c0 -23 4 -34 10 -30 6 4 10 15 8 24 -2 10 1 17 7 17 5 -1
8 -11 7 -23 -2 -13 1 -23 7 -23 6 0 10 15 8 33 -2 24 -8 33 -25 35 -19 3 -22
-1 -22 -33z"/>
<path d="M2778 583 c24 -3 32 -8 28 -19 -3 -8 -1 -14 4 -14 6 0 10 7 10 16 0
11 6 15 20 11 11 -3 18 -2 15 3 -2 4 -28 7 -57 7 -33 0 -41 -2 -20 -4z"/>
<path d="M490 551 c0 -32 16 -41 38 -19 9 9 12 9 12 0 0 -7 7 -12 15 -12 8 0
15 5 15 11 0 5 -4 7 -10 4 -5 -3 -10 -1 -10 4 0 6 5 11 11 11 5 0 7 5 3 11 -4
8 -9 8 -17 0 -15 -15 -23 -14 -41 5 -15 14 -16 13 -16 -15z m30 -5 c0 -3 -4
-8 -10 -11 -5 -3 -10 -1 -10 4 0 6 5 11 10 11 6 0 10 -2 10 -4z"/>
<path d="M661 550 c0 -28 2 -31 9 -15 7 17 9 17 9 3 1 -25 21 -23 21 2 0 11
-6 20 -14 20 -8 0 -17 6 -19 13 -3 6 -5 -4 -6 -23z"/>
<path d="M712 550 c0 -19 2 -27 5 -17 2 9 2 25 0 35 -3 9 -5 1 -5 -18z"/>
<path d="M830 550 c0 -16 2 -30 4 -30 2 0 6 14 8 30 3 17 1 30 -4 30 -4 0 -8
-13 -8 -30z"/>
<path d="M2684 564 c-18 -14 -18 -14 6 -3 31 14 36 19 24 19 -6 0 -19 -7 -30
-16z"/>
<path d="M271 561 c-8 -5 -24 -8 -37 -6 -14 1 -24 -3 -24 -11 0 -20 21 -28 31
-13 6 10 9 11 9 2 0 -7 5 -13 10 -13 6 0 10 7 10 15 0 8 5 15 10 15 6 0 10 -7
10 -16 0 -14 3 -14 15 -4 10 9 15 9 15 1 0 -18 20 -12 20 7 1 16 2 16 14 -1
10 -13 16 -15 21 -7 6 9 10 9 16 -1 9 -16 14 -12 24 20 6 18 4 22 -6 15 -19
-11 -49 -13 -49 -2 0 5 -9 4 -20 -2 -15 -8 -20 -8 -20 2 0 9 -3 9 -10 -2 -8
-11 -12 -12 -18 -3 -4 7 -13 9 -21 4z"/>
<path d="M793 563 c-7 -3 -13 -16 -13 -30 0 -19 4 -24 16 -19 9 3 18 6 20 6 7
0 4 39 -3 43 -5 2 -14 2 -20 0z m17 -17 c0 -3 -4 -8 -10 -11 -5 -3 -10 -1 -10
4 0 6 5 11 10 11 6 0 10 -2 10 -4z"/>
<path d="M976 547 l-26 -24 30 -1 c17 0 30 4 30 9 0 6 -4 7 -10 4 -5 -3 -10
-2 -10 4 0 5 6 11 13 14 6 2 9 7 6 11 -4 4 -18 -4 -33 -17z"/>
<path d="M1031 560 c-17 -10 -7 -40 14 -40 8 0 15 9 15 19 0 24 -12 32 -29 21z"/>
<path d="M455 550 c3 -5 1 -10 -4 -10 -6 0 -11 -4 -11 -10 0 -5 9 -10 20 -10
13 0 20 7 20 20 0 11 -7 20 -16 20 -8 0 -12 -4 -9 -10z"/>
<path d="M620 540 c0 -19 11 -26 23 -14 8 8 -3 34 -14 34 -5 0 -9 -9 -9 -20z"/>
<path d="M730 535 c0 -27 9 -32 28 -13 18 18 14 38 -8 38 -15 0 -20 -7 -20
-25z m30 11 c0 -3 -4 -8 -10 -11 -5 -3 -10 -1 -10 4 0 6 5 11 10 11 6 0 10 -2
10 -4z"/>
<path d="M857 545 c-4 -8 -2 -17 3 -20 6 -4 10 2 11 12 0 16 1 16 9 -2 8 -19
9 -19 9 3 1 25 -24 31 -32 7z"/>
<path d="M904 544 c3 -9 6 -20 6 -25 0 -17 28 -9 33 10 6 24 0 31 -26 31 -13
0 -17 -5 -13 -16z m26 -4 c0 -5 -2 -10 -4 -10 -3 0 -8 5 -11 10 -3 6 -1 10 4
10 6 0 11 -4 11 -10z"/>
<path d="M1071 538 c1 -17 2 -19 6 -5 2 9 9 17 14 17 5 0 9 -8 10 -17 0 -15 2
-15 9 2 7 17 9 17 9 3 1 -25 21 -23 21 2 0 16 -7 20 -35 20 -30 0 -35 -3 -34
-22z"/>
<path d="M2896 545 c-9 -26 -7 -32 5 -12 6 10 9 21 6 23 -2 3 -7 -2 -11 -11z"/>
<path d="M580 540 c0 -5 5 -10 10 -10 6 0 10 5 10 10 0 6 -4 10 -10 10 -5 0
-10 -4 -10 -10z"/>
<path d="M2625 527 c-25 -21 -25 -23 -7 -23 11 0 18 4 15 9 -3 4 3 15 13 22
11 8 16 15 12 15 -4 0 -19 -10 -33 -23z"/>
<path d="M2940 527 c14 -13 27 -23 29 -21 6 5 -10 24 -32 35 -20 10 -20 9 3
-14z"/>
<path d="M2785 531 c-15 -7 -11 -9 19 -9 26 0 34 3 25 9 -16 10 -18 10 -44 0z"/>
<path d="M2687 502 c-37 -25 -61 -52 -82 -91 -17 -34 -38 -37 -43 -6 -2 9 0
15 6 11 5 -3 8 6 6 20 -2 18 2 24 11 20 9 -3 12 0 8 10 -4 10 0 13 13 8 15 -5
16 -4 5 4 -23 17 -39 3 -56 -49 -19 -56 -18 -128 2 -178 14 -37 11 -45 -24
-56 -17 -4 -23 -2 -23 9 0 8 -6 21 -12 28 -7 7 -13 19 -14 26 -4 52 -6 57 -13
27 -4 -22 -22 -41 -64 -69 -37 -26 -53 -42 -45 -47 8 -5 2 -10 -15 -14 -34 -9
-34 -15 3 -47 26 -22 32 -24 37 -12 5 13 7 13 14 3 5 -8 2 -20 -8 -31 -8 -9
-13 -25 -9 -34 5 -14 9 -14 38 4 l31 20 17 -21 c17 -20 20 -20 76 -7 67 17 74
16 130 -12 51 -25 185 -22 256 7 42 17 52 17 102 5 51 -12 58 -12 76 5 17 15
24 16 46 7 38 -18 44 -15 44 22 0 28 5 38 27 48 36 18 40 36 9 44 -14 3 -24 9
-21 14 6 9 -31 43 -75 68 -27 15 -34 24 -32 43 5 30 5 28 3 62 -2 47 -17 30
-16 -19 0 -25 -3 -48 -7 -50 -4 -3 -5 -11 -1 -19 3 -8 0 -15 -7 -15 -6 0 -8
-4 -5 -10 3 -6 1 -10 -4 -10 -6 0 -11 -7 -11 -15 0 -19 -17 -19 -36 0 -13 13
-13 21 1 70 17 56 14 122 -7 155 -6 11 -7 8 -2 -9 4 -15 1 -26 -7 -32 -14 -8
-39 7 -39 24 0 19 -47 72 -81 91 -32 18 -32 17 8 -18 46 -40 66 -88 65 -153 0
-41 -28 -103 -45 -103 -5 0 -2 11 7 25 20 30 21 46 2 39 -8 -3 -17 0 -21 6 -6
9 -10 9 -17 -1 -7 -10 -8 -6 -4 12 4 18 1 26 -9 26 -8 0 -15 -6 -15 -12 0 -20
-28 -37 -50 -30 -15 5 -20 16 -22 43 -1 36 -1 36 -5 5 -8 -64 -61 -69 -74 -7
-6 27 -7 26 -8 -9 -1 -51 -25 -44 -29 9 -2 21 -9 42 -15 46 -8 5 -6 12 8 22
26 20 35 20 35 0 0 -14 1 -14 16 0 22 23 53 20 64 -6 6 -17 9 -18 9 -6 1 9 6
20 12 23 16 10 59 -4 59 -19 0 -8 6 -14 13 -13 37 1 49 -4 43 -18 -3 -8 -1
-15 5 -15 5 0 14 -10 19 -22 8 -20 9 -18 9 15 1 46 -30 111 -64 133 -13 9 -40
19 -58 24 -44 10 -113 -2 -109 -19 1 -7 -2 -9 -8 -6 -14 9 -47 -21 -66 -57
-20 -39 -17 -112 6 -158 27 -53 17 -51 -15 3 -44 76 -29 154 42 216 50 45 53
51 10 23z m113 -292 c0 -5 7 -10 16 -10 11 0 14 -5 10 -16 -3 -9 -6 -21 -6
-27 0 -7 -14 -12 -31 -13 -21 -1 -29 3 -25 12 3 7 1 16 -4 19 -15 9 -12 25 5
25 8 0 15 5 15 10 0 6 5 10 10 10 6 0 10 -4 10 -10z m115 -25 c9 -8 9 -15 0
-33 -7 -14 -15 -19 -19 -13 -4 5 -13 8 -21 4 -10 -3 -15 2 -15 16 0 12 0 23 0
26 0 3 3 4 6 3 3 -2 10 6 16 17 9 15 13 16 16 5 3 -8 11 -19 17 -25z m-215 14
c0 -6 7 -8 16 -5 12 5 15 2 10 -10 -3 -8 -6 -22 -6 -31 0 -9 -6 -13 -15 -9 -8
3 -15 1 -15 -4 0 -17 -17 -11 -24 8 -3 9 -9 23 -12 30 -3 7 1 12 10 12 9 0 16
5 16 10 0 6 5 10 10 10 6 0 10 -5 10 -11z m-80 -19 c5 0 8 -13 8 -29 -1 -24
-5 -29 -22 -28 -26 2 -65 37 -41 37 8 0 15 7 15 16 0 11 5 14 16 10 9 -3 19
-6 24 -6z m386 -47 c-6 -13 -17 -21 -24 -18 -8 3 -19 5 -26 5 -6 0 -11 12 -10
28 0 15 6 27 12 27 5 0 14 3 18 7 4 5 15 0 24 -9 12 -14 14 -22 6 -40z m-407
-37 c-2 -2 -18 -7 -34 -11 l-30 -6 30 14 c27 13 45 14 34 3z m344 5 c21 -1 23
-21 2 -21 -8 0 -15 -4 -15 -9 0 -5 -15 -13 -32 -17 -18 -4 -36 -9 -40 -10 -5
-1 -9 -2 -10 -4 -8 -6 -118 -5 -118 2 0 4 -7 5 -15 2 -8 -4 -15 -1 -15 5 0 6
-7 8 -15 5 -8 -4 -15 -1 -15 6 0 6 -5 8 -10 5 -9 -6 -40 16 -40 29 0 9 44 11
175 10 72 -1 138 -2 148 -3z m-453 -34 c0 -5 -4 -5 -10 -2 -5 3 -10 14 -10 23
0 15 2 15 10 2 5 -8 10 -19 10 -23z m610 8 c-7 -9 -15 -13 -18 -10 -3 2 1 11
8 20 7 9 15 13 18 10 3 -2 -1 -11 -8 -20z m90 -2 c0 -10 -4 -14 -8 -8 -4 6
-11 13 -16 18 -5 4 -2 7 7 7 10 0 17 -8 17 -17z"/>
<path d="M3095 390 c3 -5 8 -10 11 -10 2 0 4 5 4 10 0 6 -5 10 -11 10 -5 0 -7
-4 -4 -10z"/>
</g>
</svg>
